{
  "asset": {
    "version": "2.0",
    "generator": "Sketchup glTF Exporter v1.2.6 by Centaur"
  },
  "scene": 0,
  "scenes": [
    {
      "nodes": [
        0
      ]
    }
  ],
  "samplers": [
    {
    }
  ],
  "nodes": [
    {
      "name": "root",
      "children": [
        1,
        2,
        3,
        4
      ]
    },
    {
      "name": "Floor",
      "mesh": 0
    },
    {
      "name": "Pillar",
      "mesh": 1
    },
    {
      "name": "Ceiling",
      "mesh": 2
    },
    {
      "name": "Wall",
      "mesh": 3
    }
  ],
  "materials": [
    {
      "pbrMetallicRoughness": {
        "baseColorFactor": [
          0.2176,
          0.2176,
          0.2176,
          1.0
        ],
        "metallicFactor": 0.1,
        "roughnessFactor": 0.9
      },
      "name": "default material",
      "doubleSided": true
    },
    {
      "pbrMetallicRoughness": {
        "baseColorTexture": {
          "index": 0
        },
        "metallicFactor": 0.1,
        "roughnessFactor": 0.9
      },
      "name": "CeramicTile"
    },
    {
      "pbrMetallicRoughness": {
        "baseColorTexture": {
          "index": 1
        },
        "metallicFactor": 0.1,
        "roughnessFactor": 0.9
      },
      "name": "Cladding Stucco White"
    }
  ],
  "images": [
    {
      "bufferView": 0,
      "mimeType": "image/jpeg"
    },
    {
      "bufferView": 1,
      "mimeType": "image/jpeg"
    }
  ],
  "textures": [
    {
      "source": 0,
      "sampler": 0
    },
    {
      "source": 1,
      "sampler": 0
    }
  ],
  "meshes": [
    {
      "primitives": [
        {
          "attributes": {
            "POSITION": 0,
            "NORMAL": 1
          },
          "indices": 5,
          "mode": 4,
          "material": 0
        },
        {
          "attributes": {
            "POSITION": 2,
            "NORMAL": 3,
            "TEXCOORD_0": 4
          },
          "indices": 6,
          "mode": 4,
          "material": 1
        }
      ]
    },
    {
      "primitives": [
        {
          "attributes": {
            "POSITION": 2,
            "NORMAL": 3,
            "TEXCOORD_0": 4
          },
          "indices": 7,
          "mode": 4,
          "material": 2
        }
      ]
    },
    {
      "primitives": [
        {
          "attributes": {
            "POSITION": 2,
            "NORMAL": 3,
            "TEXCOORD_0": 4
          },
          "indices": 8,
          "mode": 4,
          "material": 2
        }
      ]
    },
    {
      "primitives": [
        {
          "attributes": {
            "POSITION": 2,
            "NORMAL": 3,
            "TEXCOORD_0": 4
          },
          "indices": 9,
          "mode": 4,
          "material": 2
        }
      ]
    }
  ],
  "accessors": [
    {
      "bufferView": 2,
      "componentType": 5126,
      "count": 20,
      "type": "VEC3",
      "min": [
        -1.4997597826618574e-34,
        -0.02000000000000064,
        -10.499999999999998
      ],
      "max": [
        9.000000000000002,
        0.0,
        2.2055888852643826e-15
      ]
    },
    {
      "bufferView": 3,
      "componentType": 5126,
      "count": 20,
      "type": "VEC3",
      "min": [
        -1.0,
        -1.0,
        -1.0
      ],
      "max": [
        1.0,
        6.123233995736766e-17,
        1.0
      ]
    },
    {
      "bufferView": 4,
      "componentType": 5126,
      "count": 296,
      "type": "VEC3",
      "min": [
        -0.05,
        -6.460011865502289e-16,
        -10.549999999999999
      ],
      "max": [
        9.05,
        2.777,
        0.0500000000000022
      ]
    },
    {
      "bufferView": 5,
      "componentType": 5126,
      "count": 296,
      "type": "VEC3",
      "min": [
        -1.0,
        -1.0,
        -1.0
      ],
      "max": [
        1.0,
        1.0,
        1.0
      ]
    },
    {
      "bufferView": 6,
      "componentType": 5126,
      "count": 296,
      "type": "VEC2",
      "min": [
        -417.3228346456693,
        -416.3228346456693
      ],
      "max": [
        417.3228346456693,
        1.0
      ]
    },
    {
      "bufferView": 7,
      "componentType": 5121,
      "count": 30,
      "type": "SCALAR"
    },
    {
      "bufferView": 8,
      "componentType": 5123,
      "count": 6,
      "type": "SCALAR"
    },
    {
      "bufferView": 8,
      "componentType": 5123,
      "count": 144,
      "type": "SCALAR",
      "byteOffset": 12
    },
    {
      "bufferView": 8,
      "componentType": 5123,
      "count": 36,
      "type": "SCALAR",
      "byteOffset": 300
    },
    {
      "bufferView": 8,
      "componentType": 5123,
      "count": 372,
      "type": "SCALAR",
      "byteOffset": 372
    }
  ],
  "bufferViews": [
    {
      "buffer": 0,
      "byteLength": 67856
    },
    {
      "buffer": 0,
      "byteOffset": 67856,
      "byteLength": 15888
    },
    {
      "buffer": 0,
      "byteOffset": 83748,
      "byteLength": 240,
      "target": 34962,
      "byteStride": 12
    },
    {
      "buffer": 0,
      "byteOffset": 83988,
      "byteLength": 240,
      "target": 34962,
      "byteStride": 12
    },
    {
      "buffer": 0,
      "byteOffset": 84228,
      "byteLength": 3552,
      "target": 34962,
      "byteStride": 12
    },
    {
      "buffer": 0,
      "byteOffset": 87780,
      "byteLength": 3552,
      "target": 34962,
      "byteStride": 12
    },
    {
      "buffer": 0,
      "byteOffset": 91336,
      "byteLength": 2368,
      "target": 34962,
      "byteStride": 8
    },
    {
      "buffer": 0,
      "byteOffset": 93704,
      "byteLength": 30,
      "target": 34963
    },
    {
      "buffer": 0,
      "byteOffset": 93734,
      "byteLength": 1116,
      "target": 34963
    }
  ],
  "buffers": [
    {
      "uri": "data:application/octet-stream;base64,",
      "byteLength": 94850
    }
  ]
}